<svg id="svg" xmlns="http://www.w3.org/2000/svg" xmlns:xlink="http://www.w3.org/1999/xlink" width="400" height="400" viewBox="0, 0, 400,400"><g id="svgg"><path id="path0" d="M10.156 36.729 C 10.156 36.938,9.717 37.109,9.180 37.109 C 8.643 37.109,8.203 37.285,8.203 37.500 C 8.203 37.715,7.852 37.891,7.422 37.891 C 6.992 37.891,6.641 38.066,6.641 38.281 C 6.641 38.496,6.453 38.672,6.224 38.672 C 5.995 38.672,4.810 39.639,3.590 40.820 C 2.370 42.002,1.239 42.969,1.077 42.969 C 0.914 42.969,0.781 43.398,0.781 43.922 C 0.781 44.447,0.605 44.984,0.391 45.117 C -0.165 45.460,-0.136 58.984,0.421 58.984 C 0.663 58.984,0.791 59.563,0.723 60.351 C 0.633 61.402,0.806 61.858,1.475 62.326 C 2.087 62.755,2.344 63.332,2.344 64.280 C 2.344 65.020,2.520 65.625,2.734 65.625 C 2.949 65.625,3.125 65.977,3.125 66.406 C 3.125 66.836,3.293 67.188,3.498 67.188 C 3.703 67.187,3.986 67.803,4.127 68.555 C 4.268 69.307,4.540 69.922,4.731 69.922 C 4.922 69.922,5.078 70.334,5.078 70.838 C 5.078 71.342,5.430 72.072,5.859 72.461 C 6.289 72.850,6.641 73.457,6.641 73.811 C 6.641 74.623,7.525 76.555,7.898 76.559 C 8.052 76.561,8.079 76.821,7.958 77.137 C 7.732 77.726,8.588 80.078,9.029 80.078 C 9.163 80.078,9.376 80.715,9.503 81.494 C 9.629 82.272,10.031 83.239,10.395 83.642 C 10.760 84.045,10.934 84.375,10.781 84.375 C 10.628 84.375,10.814 84.902,11.195 85.547 C 11.576 86.191,12.025 86.719,12.194 86.719 C 12.362 86.719,12.500 87.246,12.500 87.891 C 12.500 88.535,12.670 89.063,12.878 89.063 C 13.086 89.063,13.156 89.326,13.032 89.648 C 12.890 90.019,13.037 90.234,13.435 90.234 C 13.802 90.234,14.063 90.558,14.063 91.016 C 14.063 91.445,14.233 91.797,14.441 91.797 C 14.649 91.797,14.725 92.043,14.610 92.343 C 14.494 92.644,14.588 93.006,14.817 93.148 C 15.047 93.289,15.234 93.741,15.234 94.152 C 15.234 94.562,15.586 95.524,16.016 96.289 C 16.445 97.054,16.797 98.026,16.797 98.449 C 16.797 98.873,16.952 99.219,17.142 99.219 C 17.524 99.219,18.087 100.702,17.994 101.465 C 17.961 101.733,18.200 101.953,18.525 101.953 C 18.890 101.953,19.030 102.177,18.891 102.539 C 18.768 102.861,18.861 103.125,19.099 103.125 C 19.337 103.125,19.531 103.652,19.531 104.297 C 19.531 104.941,19.707 105.469,19.922 105.469 C 20.137 105.469,20.313 105.820,20.313 106.250 C 20.313 106.680,20.488 107.031,20.703 107.031 C 20.918 107.031,21.094 107.383,21.094 107.813 C 21.094 108.242,21.280 108.594,21.507 108.594 C 21.735 108.594,21.817 108.762,21.690 108.968 C 21.562 109.175,21.625 109.658,21.829 110.043 C 22.033 110.427,22.487 111.401,22.837 112.207 C 23.187 113.013,23.622 113.672,23.802 113.672 C 23.982 113.672,24.249 114.463,24.394 115.430 C 24.539 116.396,24.778 117.189,24.926 117.191 C 25.259 117.194,26.172 119.111,26.172 119.804 C 26.172 120.084,26.348 120.313,26.563 120.313 C 26.777 120.313,26.953 120.752,26.953 121.289 C 26.953 121.826,27.129 122.266,27.344 122.266 C 27.559 122.266,27.734 122.617,27.734 123.047 C 27.734 123.477,27.910 123.828,28.125 123.828 C 28.340 123.828,28.516 124.180,28.516 124.609 C 28.516 125.039,28.667 125.391,28.852 125.391 C 29.037 125.391,29.105 125.830,29.002 126.367 C 28.899 126.904,28.979 127.344,29.178 127.344 C 29.378 127.344,29.783 127.959,30.078 128.711 C 30.373 129.463,30.758 130.078,30.932 130.078 C 31.107 130.078,31.250 130.322,31.250 130.619 C 31.250 130.917,31.513 131.664,31.834 132.280 C 32.154 132.895,32.418 133.980,32.419 134.691 C 32.421 135.453,32.582 135.884,32.812 135.742 C 33.027 135.609,33.203 135.873,33.203 136.328 C 33.203 136.783,33.379 137.047,33.594 136.914 C 33.809 136.781,33.984 137.000,33.984 137.399 C 33.984 138.290,34.853 140.227,35.254 140.231 C 35.415 140.233,35.547 140.756,35.547 141.393 C 35.547 142.151,35.817 142.695,36.328 142.969 C 36.840 143.243,37.109 143.787,37.109 144.545 C 37.109 145.182,37.265 145.703,37.454 145.703 C 37.873 145.703,38.389 147.199,38.297 148.147 C 38.261 148.525,38.507 148.939,38.844 149.069 C 39.183 149.199,39.565 149.976,39.698 150.806 C 39.830 151.632,40.268 152.607,40.672 152.972 C 41.076 153.338,41.406 154.137,41.406 154.748 C 41.406 155.359,41.574 155.859,41.779 155.859 C 41.984 155.859,42.268 156.475,42.409 157.227 C 42.550 157.979,42.885 158.594,43.153 158.594 C 43.457 158.594,43.574 158.945,43.464 159.525 C 43.366 160.036,43.478 160.574,43.713 160.719 C 43.948 160.865,44.141 161.413,44.141 161.937 C 44.141 162.462,44.296 162.891,44.486 162.891 C 44.789 162.891,45.348 164.264,45.181 164.597 C 45.146 164.667,45.373 165.032,45.686 165.409 C 45.999 165.786,46.297 166.381,46.348 166.732 C 46.400 167.082,46.627 167.430,46.854 167.506 C 47.080 167.581,47.266 167.892,47.266 168.197 C 47.266 168.501,47.441 168.750,47.656 168.750 C 47.871 168.750,48.047 169.277,48.047 169.922 C 48.047 170.566,48.217 171.094,48.425 171.094 C 48.633 171.094,48.702 171.357,48.579 171.680 C 48.436 172.051,48.584 172.266,48.982 172.266 C 49.349 172.266,49.609 172.590,49.609 173.047 C 49.609 173.477,49.769 173.828,49.963 173.828 C 50.158 173.828,50.223 174.191,50.107 174.634 C 49.965 175.177,50.168 175.630,50.729 176.023 C 51.259 176.394,51.562 177.026,51.562 177.757 C 51.563 178.389,51.738 178.906,51.953 178.906 C 52.168 178.906,52.344 179.258,52.344 179.688 C 52.344 180.117,52.530 180.469,52.757 180.469 C 52.985 180.469,53.065 180.641,52.935 180.851 C 52.805 181.062,52.920 181.633,53.190 182.121 C 53.460 182.609,53.643 183.145,53.595 183.312 C 53.547 183.479,53.748 183.707,54.040 183.820 C 54.359 183.942,54.501 184.392,54.395 184.946 C 54.271 185.598,54.459 185.997,55.039 186.307 C 55.589 186.602,55.859 187.128,55.859 187.904 C 55.859 188.541,56.046 189.063,56.273 189.063 C 56.501 189.062,56.583 189.231,56.455 189.437 C 56.328 189.643,56.390 190.127,56.595 190.511 C 56.799 190.896,57.252 191.870,57.603 192.676 C 57.953 193.481,58.391 194.141,58.576 194.141 C 58.760 194.141,58.812 194.518,58.692 194.980 C 58.550 195.524,58.714 195.997,59.158 196.321 C 59.535 196.597,59.728 197.010,59.586 197.240 C 59.444 197.469,59.614 197.656,59.964 197.656 C 60.422 197.656,60.530 197.875,60.352 198.438 C 60.215 198.867,60.247 199.220,60.423 199.222 C 60.881 199.226,61.719 201.168,61.719 202.226 C 61.719 202.721,61.895 203.125,62.109 203.125 C 62.324 203.125,62.500 203.389,62.500 203.711 C 62.500 204.033,62.676 204.297,62.891 204.297 C 63.105 204.297,63.281 204.648,63.281 205.078 C 63.281 205.508,63.476 205.859,63.714 205.859 C 63.951 205.859,64.050 206.108,63.934 206.413 C 63.817 206.717,63.960 207.058,64.252 207.170 C 64.580 207.296,64.698 207.698,64.562 208.219 C 64.441 208.684,64.498 209.178,64.690 209.317 C 65.270 209.738,66.016 211.271,66.016 212.044 C 66.016 212.443,66.373 213.093,66.811 213.489 C 67.248 213.885,67.531 214.403,67.440 214.641 C 67.348 214.879,67.606 215.756,68.012 216.591 C 68.418 217.425,68.750 218.428,68.750 218.820 C 68.750 219.211,68.926 219.531,69.141 219.531 C 69.355 219.531,69.531 219.800,69.531 220.129 C 69.531 220.458,69.775 220.821,70.074 220.936 C 70.395 221.059,70.533 221.463,70.413 221.925 C 70.277 222.445,70.498 222.908,71.079 223.315 C 71.727 223.769,71.907 224.212,71.785 225.048 C 71.674 225.804,71.789 226.172,72.138 226.172 C 72.423 226.172,72.656 226.523,72.656 226.953 C 72.656 227.383,72.832 227.734,73.047 227.734 C 73.262 227.734,73.438 228.174,73.438 228.711 C 73.438 229.248,73.608 229.688,73.816 229.688 C 74.024 229.687,74.094 229.950,73.971 230.270 C 73.845 230.597,74.011 230.954,74.349 231.084 C 74.680 231.211,74.855 231.564,74.738 231.868 C 74.621 232.173,74.720 232.422,74.958 232.422 C 75.196 232.422,75.391 232.773,75.391 233.203 C 75.391 233.633,75.566 233.984,75.781 233.984 C 75.996 233.984,76.172 234.413,76.172 234.938 C 76.172 235.462,76.348 236.000,76.563 236.133 C 76.777 236.266,76.953 236.715,76.953 237.132 C 76.953 237.549,77.108 237.891,77.298 237.891 C 77.587 237.891,78.058 238.871,78.268 239.909 C 78.297 240.052,78.452 240.301,78.613 240.462 C 78.774 240.623,78.906 241.042,78.906 241.393 C 78.906 242.215,79.794 244.134,80.176 244.138 C 80.337 244.139,80.469 244.570,80.469 245.094 C 80.469 245.619,80.637 246.152,80.842 246.279 C 81.048 246.406,81.117 246.767,80.996 247.083 C 80.857 247.446,81.015 247.656,81.427 247.656 C 81.785 247.656,81.982 247.811,81.865 247.999 C 81.596 248.435,82.748 250.781,83.232 250.781 C 83.431 250.781,83.594 251.309,83.594 251.953 C 83.594 252.598,83.764 253.125,83.972 253.125 C 84.180 253.125,84.249 253.389,84.126 253.711 C 83.984 254.080,84.130 254.297,84.519 254.297 C 84.997 254.297,85.084 254.562,84.902 255.469 C 84.753 256.215,84.827 256.641,85.107 256.641 C 85.349 256.641,85.547 256.904,85.547 257.227 C 85.547 257.549,85.723 257.813,85.938 257.813 C 86.152 257.813,86.328 258.164,86.328 258.594 C 86.328 259.023,86.504 259.375,86.719 259.375 C 86.934 259.375,87.109 259.727,87.109 260.156 C 87.109 260.586,87.285 260.938,87.500 260.938 C 87.715 260.938,87.891 261.465,87.891 262.109 C 87.891 262.754,88.058 263.281,88.264 263.281 C 88.469 263.281,88.752 263.896,88.893 264.648 C 89.034 265.400,89.306 266.016,89.497 266.016 C 89.688 266.016,89.844 266.367,89.844 266.797 C 89.844 267.227,90.020 267.578,90.234 267.578 C 90.449 267.578,90.625 268.018,90.625 268.555 C 90.625 269.092,90.801 269.531,91.016 269.531 C 91.230 269.531,91.406 269.883,91.406 270.313 C 91.406 270.742,91.592 271.094,91.820 271.094 C 92.047 271.094,92.131 271.259,92.007 271.461 C 91.882 271.663,92.016 272.049,92.305 272.319 C 92.594 272.589,92.754 273.215,92.659 273.710 C 92.563 274.214,92.679 274.609,92.923 274.609 C 93.163 274.609,93.359 274.879,93.359 275.208 C 93.359 275.537,93.604 275.899,93.902 276.014 C 94.216 276.134,94.362 276.541,94.247 276.978 C 94.138 277.394,94.246 277.734,94.486 277.734 C 94.726 277.734,94.922 278.174,94.922 278.711 C 94.922 279.248,95.054 279.689,95.215 279.691 C 95.566 279.694,96.484 281.586,96.484 282.304 C 96.484 282.584,96.836 283.164,97.266 283.594 C 97.740 284.068,98.047 284.896,98.047 285.700 C 98.047 286.518,98.271 287.112,98.633 287.251 C 98.975 287.382,99.219 287.967,99.219 288.660 C 99.219 289.311,99.395 289.844,99.609 289.844 C 99.824 289.844,100.000 290.195,100.000 290.625 C 100.000 291.055,100.176 291.406,100.391 291.406 C 100.605 291.406,100.781 291.803,100.781 292.289 C 100.781 292.774,101.148 293.400,101.595 293.680 C 102.078 293.981,102.317 294.427,102.184 294.775 C 102.060 295.098,102.309 296.087,102.737 296.973 C 103.165 297.859,103.516 298.903,103.516 299.292 C 103.516 299.681,103.691 300.000,103.906 300.000 C 104.121 300.000,104.297 300.352,104.297 300.781 C 104.297 301.211,104.473 301.563,104.688 301.563 C 104.902 301.563,105.078 301.832,105.078 302.161 C 105.078 302.490,105.346 302.862,105.674 302.988 C 106.155 303.172,106.177 303.328,105.786 303.799 C 105.395 304.271,105.430 304.474,105.972 304.870 C 106.340 305.139,106.641 305.648,106.641 306.000 C 106.641 306.352,106.816 306.641,107.031 306.641 C 107.246 306.641,107.422 306.992,107.422 307.422 C 107.422 307.852,107.608 308.203,107.836 308.203 C 108.063 308.203,108.130 308.396,107.985 308.631 C 107.839 308.866,108.093 309.562,108.548 310.178 C 109.003 310.793,109.375 311.661,109.375 312.106 C 109.375 312.551,109.628 313.012,109.936 313.131 C 110.245 313.249,110.402 313.595,110.285 313.900 C 110.168 314.204,110.267 314.453,110.505 314.453 C 110.743 314.453,110.938 314.938,110.938 315.531 C 110.938 316.186,111.244 316.800,111.719 317.097 C 112.152 317.368,112.500 318.008,112.500 318.535 C 112.500 319.058,112.679 319.596,112.897 319.731 C 113.115 319.865,113.200 320.127,113.086 320.313 C 112.972 320.498,113.057 320.760,113.275 320.894 C 113.493 321.029,113.672 321.446,113.672 321.820 C 113.672 322.675,114.550 324.602,114.941 324.606 C 115.103 324.608,115.234 325.137,115.234 325.781 C 115.234 326.426,115.377 326.953,115.552 326.953 C 115.727 326.953,116.111 327.568,116.406 328.320 C 116.701 329.072,117.080 329.687,117.248 329.687 C 117.416 329.687,117.459 329.933,117.344 330.234 C 117.229 330.534,117.322 330.896,117.551 331.038 C 117.781 331.180,117.969 331.731,117.969 332.262 C 117.969 332.793,118.232 333.329,118.555 333.452 C 118.877 333.576,119.141 334.010,119.141 334.417 C 119.141 334.823,119.311 335.156,119.519 335.156 C 119.727 335.156,119.796 335.420,119.673 335.742 C 119.549 336.064,119.642 336.328,119.880 336.328 C 120.118 336.328,120.313 336.597,120.313 336.926 C 120.313 337.255,120.550 337.616,120.841 337.727 C 121.163 337.851,121.297 338.302,121.186 338.887 C 121.080 339.440,121.187 339.844,121.439 339.844 C 121.679 339.844,121.875 340.195,121.875 340.625 C 121.875 341.055,122.051 341.406,122.266 341.406 C 122.480 341.406,122.656 341.891,122.656 342.484 C 122.656 343.139,122.963 343.754,123.438 344.050 C 123.867 344.318,124.219 344.779,124.219 345.073 C 124.219 345.367,124.482 345.826,124.805 346.094 C 125.127 346.361,125.391 346.910,125.391 347.313 C 125.391 347.717,125.621 348.047,125.903 348.047 C 126.522 348.047,128.125 350.130,128.125 350.934 C 128.125 351.251,128.461 351.617,128.872 351.747 C 129.283 351.877,130.793 353.296,132.228 354.898 C 133.662 356.501,135.056 357.813,135.326 357.813 C 135.596 357.812,136.151 358.184,136.561 358.639 C 136.970 359.093,137.656 359.628,138.086 359.827 C 139.279 360.381,140.468 361.102,141.229 361.734 C 141.608 362.048,141.934 362.248,141.955 362.180 C 142.060 361.830,144.192 362.961,144.388 363.471 C 144.518 363.811,145.096 364.063,145.745 364.063 C 146.366 364.063,146.875 364.238,146.875 364.453 C 146.875 364.668,147.170 364.844,147.531 364.844 C 148.265 364.844,150.618 365.540,151.655 366.064 C 152.856 366.670,208.203 366.498,208.203 365.888 C 208.203 365.530,208.579 365.425,209.418 365.548 C 210.087 365.646,210.746 365.571,210.883 365.380 C 211.020 365.190,211.806 364.533,212.629 363.919 C 214.916 362.213,216.215 360.831,216.824 359.455 C 217.129 358.766,217.511 358.203,217.673 358.203 C 217.836 358.203,217.969 357.852,217.969 357.422 C 217.969 356.992,218.165 356.641,218.405 356.641 C 218.657 356.641,218.764 356.237,218.658 355.684 C 218.546 355.099,218.681 354.648,219.003 354.524 C 219.762 354.233,219.747 347.931,218.986 347.299 C 218.686 347.050,218.525 346.521,218.629 346.123 C 218.733 345.726,218.627 345.283,218.393 345.138 C 218.160 344.994,217.969 344.364,217.969 343.739 C 217.969 343.114,217.617 341.976,217.188 341.211 C 216.758 340.446,216.406 339.474,216.406 339.051 C 216.406 338.627,216.250 338.281,216.059 338.281 C 215.868 338.281,215.597 337.666,215.455 336.914 C 215.314 336.162,215.031 335.547,214.826 335.547 C 214.621 335.547,214.453 335.278,214.453 334.949 C 214.453 334.620,214.216 334.259,213.925 334.148 C 213.603 334.024,213.468 333.573,213.580 332.988 C 213.686 332.435,213.579 332.031,213.327 332.031 C 213.087 332.031,212.891 331.803,212.891 331.523 C 212.891 330.797,211.970 328.913,211.614 328.909 C 211.448 328.908,211.423 328.468,211.557 327.933 C 211.731 327.241,211.621 326.891,211.174 326.720 C 210.829 326.587,210.547 326.234,210.547 325.935 C 210.547 325.635,210.371 325.391,210.156 325.391 C 209.941 325.391,209.766 325.039,209.766 324.609 C 209.766 324.180,209.606 323.828,209.412 323.828 C 209.217 323.828,209.143 323.503,209.247 323.105 C 209.351 322.707,209.147 322.094,208.794 321.741 C 208.442 321.388,208.263 320.923,208.397 320.706 C 208.530 320.490,208.454 320.313,208.226 320.313 C 207.999 320.313,207.813 319.961,207.813 319.531 C 207.813 319.102,207.637 318.750,207.422 318.750 C 207.207 318.750,207.031 318.398,207.031 317.969 C 207.031 317.539,206.855 317.188,206.641 317.188 C 206.426 317.188,206.250 316.748,206.250 316.211 C 206.250 315.674,206.074 315.234,205.859 315.234 C 205.645 315.234,205.469 314.883,205.469 314.453 C 205.469 314.023,205.309 313.672,205.115 313.672 C 204.920 313.672,204.858 313.298,204.978 312.841 C 205.117 312.310,204.969 311.884,204.567 311.659 C 204.221 311.466,204.038 311.048,204.160 310.732 C 204.281 310.415,204.186 310.156,203.948 310.156 C 203.710 310.156,203.516 309.805,203.516 309.375 C 203.516 308.945,203.360 308.594,203.171 308.594 C 202.814 308.594,202.213 307.104,202.320 306.488 C 202.413 305.952,201.177 303.516,200.812 303.516 C 200.634 303.516,200.488 303.052,200.488 302.484 C 200.488 301.917,200.203 301.293,199.854 301.098 C 199.504 300.902,199.219 300.306,199.219 299.773 C 199.219 299.240,198.966 298.707,198.657 298.588 C 198.349 298.470,198.192 298.124,198.309 297.819 C 198.425 297.515,198.326 297.266,198.089 297.266 C 197.851 297.266,197.656 296.970,197.656 296.610 C 197.656 295.658,196.772 293.359,196.406 293.359 C 196.234 293.359,196.094 292.844,196.094 292.214 C 196.094 291.404,195.860 290.994,195.296 290.815 C 194.745 290.640,194.568 290.343,194.723 289.853 C 194.847 289.464,194.709 288.905,194.415 288.612 C 194.122 288.319,193.950 287.877,194.032 287.630 C 194.115 287.383,193.997 287.067,193.771 286.927 C 193.544 286.787,193.359 286.244,193.359 285.719 C 193.359 285.195,193.184 284.766,192.969 284.766 C 192.754 284.766,192.578 284.537,192.578 284.258 C 192.578 283.539,191.659 281.647,191.309 281.644 C 191.147 281.642,191.016 281.289,191.016 280.859 C 191.016 280.430,190.856 280.078,190.662 280.078 C 190.467 280.078,190.399 279.729,190.511 279.302 C 190.637 278.818,190.485 278.438,190.108 278.293 C 189.775 278.165,189.598 277.811,189.715 277.507 C 189.832 277.202,189.733 276.953,189.495 276.953 C 189.257 276.953,189.063 276.426,189.063 275.781 C 189.063 275.137,188.874 274.609,188.644 274.609 C 187.986 274.609,187.224 273.679,187.415 273.107 C 187.592 272.576,185.977 269.050,185.449 268.815 C 185.288 268.743,185.156 268.348,185.156 267.936 C 185.156 267.524,184.980 267.188,184.766 267.188 C 184.551 267.188,184.374 266.792,184.373 266.309 C 184.371 265.825,184.108 264.926,183.787 264.311 C 183.466 263.695,183.203 262.948,183.203 262.651 C 183.203 262.353,183.027 262.109,182.813 262.109 C 182.598 262.109,182.422 261.680,182.422 261.156 C 182.422 260.631,182.246 260.094,182.031 259.961 C 181.816 259.828,181.641 259.413,181.641 259.039 C 181.641 258.198,180.765 256.257,180.383 256.253 C 180.229 256.251,180.204 255.986,180.327 255.664 C 180.451 255.342,180.358 255.078,180.120 255.078 C 179.882 255.078,179.688 254.727,179.688 254.297 C 179.688 253.867,179.512 253.516,179.297 253.516 C 179.082 253.516,178.906 253.157,178.906 252.718 C 178.906 252.279,178.555 251.543,178.125 251.082 C 177.695 250.621,177.344 249.960,177.344 249.614 C 177.344 248.799,176.454 246.882,176.074 246.878 C 175.913 246.876,175.781 246.348,175.781 245.703 C 175.781 245.059,175.605 244.531,175.391 244.531 C 175.176 244.531,175.000 244.268,175.000 243.945 C 175.000 243.623,174.824 243.359,174.609 243.359 C 174.395 243.359,174.219 243.008,174.219 242.578 C 174.219 242.148,174.059 241.797,173.865 241.797 C 173.670 241.797,173.607 241.427,173.725 240.976 C 173.852 240.493,173.716 240.016,173.396 239.818 C 173.096 239.633,172.828 239.343,172.799 239.174 C 172.629 238.179,172.126 237.109,171.829 237.109 C 171.640 237.109,171.484 236.668,171.484 236.128 C 171.484 235.144,170.808 233.616,170.165 233.149 C 169.976 233.012,169.943 232.703,170.092 232.463 C 170.240 232.222,170.098 231.925,169.776 231.801 C 169.454 231.677,169.286 231.327,169.402 231.022 C 169.519 230.718,169.420 230.469,169.182 230.469 C 168.945 230.469,168.750 229.941,168.750 229.297 C 168.750 228.652,168.574 228.125,168.359 228.125 C 168.145 228.125,167.969 227.773,167.969 227.344 C 167.969 226.914,167.793 226.563,167.578 226.563 C 167.363 226.563,167.188 226.201,167.188 225.760 C 167.187 224.715,165.714 221.484,165.237 221.484 C 165.034 221.484,164.969 221.222,165.092 220.902 C 165.220 220.569,165.047 220.216,164.689 220.079 C 164.344 219.946,164.063 219.418,164.063 218.904 C 164.063 218.389,163.903 217.969,163.708 217.969 C 163.514 217.969,163.446 217.617,163.559 217.188 C 163.700 216.649,163.571 216.406,163.144 216.406 C 162.754 216.406,162.608 216.189,162.749 215.820 C 162.873 215.498,162.780 215.234,162.542 215.234 C 162.304 215.234,162.109 214.883,162.109 214.453 C 162.109 214.023,161.934 213.672,161.719 213.672 C 161.504 213.672,161.328 213.145,161.328 212.500 C 161.328 211.855,161.152 211.328,160.938 211.328 C 160.723 211.328,160.547 210.977,160.547 210.547 C 160.547 210.117,160.392 209.766,160.202 209.766 C 159.872 209.766,159.406 208.670,159.206 207.422 C 159.017 206.247,158.494 205.078,158.158 205.078 C 157.968 205.078,157.813 204.727,157.813 204.297 C 157.813 203.867,157.637 203.516,157.422 203.516 C 157.207 203.516,157.031 202.988,157.031 202.344 C 157.031 201.699,156.855 201.172,156.641 201.172 C 156.426 201.172,156.250 200.914,156.250 200.599 C 156.250 199.893,154.991 197.118,154.590 196.940 C 154.429 196.868,154.297 196.215,154.297 195.489 C 154.297 194.568,154.060 194.042,153.516 193.750 C 153.004 193.476,152.734 192.932,152.734 192.174 C 152.734 191.439,152.534 191.016,152.185 191.016 C 151.815 191.016,151.707 190.741,151.856 190.173 C 152.019 189.549,151.945 189.412,151.567 189.645 C 151.183 189.883,151.107 189.706,151.256 188.925 C 151.375 188.306,151.279 187.891,151.018 187.891 C 150.778 187.891,150.351 187.319,150.070 186.621 C 149.788 185.923,149.397 185.051,149.199 184.683 C 149.002 184.316,148.954 183.701,149.092 183.316 C 149.230 182.932,149.202 182.745,149.029 182.902 C 148.657 183.239,146.875 179.877,146.875 178.840 C 146.875 178.447,146.715 178.125,146.519 178.125 C 146.323 178.125,146.042 177.413,145.895 176.543 C 145.748 175.672,145.408 174.755,145.139 174.503 C 144.870 174.252,144.731 173.734,144.831 173.351 C 144.931 172.969,144.817 172.656,144.577 172.656 C 144.337 172.656,144.141 172.311,144.141 171.889 C 144.141 171.467,143.787 170.932,143.356 170.701 C 142.770 170.388,142.632 170.038,142.811 169.324 C 142.983 168.638,142.867 168.296,142.402 168.117 C 142.044 167.980,141.839 167.641,141.945 167.365 C 142.051 167.088,141.886 166.765,141.577 166.646 C 141.260 166.524,141.016 165.916,141.016 165.247 C 141.016 164.595,140.840 164.063,140.625 164.063 C 140.410 164.063,140.234 163.711,140.234 163.281 C 140.234 162.852,140.048 162.500,139.821 162.500 C 139.593 162.500,139.516 162.323,139.650 162.107 C 139.784 161.890,139.618 161.608,139.283 161.479 C 138.947 161.350,138.672 160.912,138.672 160.505 C 138.672 160.098,138.520 159.766,138.335 159.766 C 138.150 159.766,138.083 159.326,138.186 158.789 C 138.295 158.219,138.191 157.813,137.936 157.813 C 137.696 157.813,137.500 157.461,137.500 157.031 C 137.500 156.602,137.324 156.250,137.109 156.250 C 136.895 156.250,136.719 155.986,136.719 155.664 C 136.719 155.342,136.543 155.078,136.328 155.078 C 136.113 155.078,135.938 154.737,135.938 154.320 C 135.938 153.903,135.760 153.452,135.544 153.318 C 135.327 153.185,135.228 152.647,135.323 152.123 C 135.440 151.477,135.315 151.172,134.935 151.172 C 134.627 151.172,134.375 150.820,134.375 150.391 C 134.375 149.961,134.205 149.609,133.997 149.609 C 133.789 149.609,133.719 149.346,133.843 149.023 C 133.967 148.701,133.873 148.438,133.636 148.438 C 133.398 148.438,133.203 148.086,133.203 147.656 C 133.203 147.227,133.027 146.875,132.813 146.875 C 132.598 146.875,132.422 146.529,132.422 146.106 C 132.422 145.682,132.083 144.733,131.668 143.995 C 131.254 143.257,131.013 142.555,131.134 142.434 C 131.434 142.134,130.128 139.453,129.681 139.453 C 129.483 139.453,129.422 139.191,129.545 138.870 C 129.673 138.538,129.500 138.185,129.142 138.047 C 128.798 137.915,128.516 137.386,128.516 136.872 C 128.516 136.358,128.364 135.938,128.179 135.938 C 127.994 135.938,127.927 135.498,128.029 134.961 C 128.138 134.391,128.035 133.984,127.780 133.984 C 127.540 133.984,127.344 133.633,127.344 133.203 C 127.344 132.773,127.168 132.422,126.953 132.422 C 126.738 132.422,126.563 131.972,126.563 131.422 C 126.562 130.855,126.393 130.527,126.172 130.664 C 125.957 130.797,125.781 130.544,125.781 130.101 C 125.781 129.659,125.605 129.297,125.391 129.297 C 125.176 129.297,125.000 128.867,125.000 128.342 C 125.000 127.818,124.640 127.136,124.199 126.827 C 123.618 126.420,123.464 126.009,123.636 125.323 C 123.803 124.656,123.637 124.167,123.069 123.653 C 122.627 123.253,122.266 122.468,122.266 121.908 C 122.266 121.314,121.941 120.688,121.484 120.403 C 120.954 120.072,120.703 119.492,120.703 118.599 C 120.703 117.875,120.439 117.064,120.117 116.797 C 119.795 116.529,119.531 115.887,119.531 115.370 C 119.531 114.852,119.279 114.332,118.970 114.213 C 118.661 114.095,118.496 113.771,118.602 113.495 C 118.708 113.218,118.543 112.895,118.235 112.777 C 117.871 112.637,117.742 112.209,117.867 111.554 C 117.981 110.958,117.882 110.547,117.624 110.547 C 117.384 110.547,117.188 110.195,117.188 109.766 C 117.188 109.336,116.940 108.984,116.638 108.984 C 116.287 108.984,116.160 108.711,116.286 108.229 C 116.404 107.781,116.150 107.114,115.664 106.592 C 115.213 106.108,114.844 105.306,114.844 104.809 C 114.844 104.313,114.658 103.906,114.430 103.906 C 114.203 103.906,114.116 103.745,114.238 103.547 C 114.360 103.350,114.225 102.953,113.937 102.665 C 113.649 102.377,113.491 101.910,113.585 101.627 C 113.679 101.345,113.386 100.768,112.933 100.346 C 112.480 99.924,112.109 99.146,112.109 98.618 C 112.109 98.089,111.934 97.656,111.719 97.656 C 111.504 97.656,111.328 97.305,111.328 96.875 C 111.328 96.445,111.152 96.094,110.938 96.094 C 110.723 96.094,110.547 95.566,110.547 94.922 C 110.547 94.277,110.361 93.750,110.133 93.750 C 109.906 93.750,109.818 93.591,109.938 93.396 C 110.166 93.027,108.615 89.745,108.105 89.518 C 107.944 89.447,107.813 88.963,107.813 88.444 C 107.813 87.925,107.642 87.500,107.434 87.500 C 107.226 87.500,107.156 87.238,107.279 86.917 C 107.408 86.582,107.232 86.231,106.865 86.090 C 106.468 85.938,106.310 85.583,106.447 85.151 C 106.568 84.770,106.398 84.188,106.068 83.858 C 105.738 83.529,105.469 82.983,105.469 82.645 C 105.469 82.307,105.293 82.031,105.078 82.031 C 104.863 82.031,104.688 81.680,104.688 81.250 C 104.688 80.820,104.501 80.469,104.274 80.469 C 104.046 80.469,103.970 80.292,104.103 80.075 C 104.237 79.859,104.066 79.575,103.724 79.443 C 103.337 79.295,103.186 78.938,103.325 78.502 C 103.447 78.116,103.364 77.687,103.141 77.549 C 102.917 77.411,102.734 76.956,102.734 76.539 C 102.734 76.122,102.591 75.781,102.417 75.781 C 102.242 75.781,101.858 75.166,101.563 74.414 C 101.267 73.662,100.864 73.047,100.666 73.047 C 100.467 73.047,100.376 72.444,100.462 71.707 C 100.551 70.942,100.450 70.397,100.226 70.437 C 100.011 70.476,99.665 69.849,99.458 69.043 C 99.251 68.237,98.936 67.578,98.759 67.578 C 98.582 67.578,98.438 67.153,98.438 66.634 C 98.437 66.115,98.306 65.632,98.145 65.560 C 97.658 65.343,96.094 62.088,96.094 61.291 C 96.094 60.882,95.944 60.547,95.762 60.547 C 95.580 60.547,95.102 59.751,94.701 58.779 C 94.300 57.806,93.576 56.751,93.092 56.434 C 92.608 56.117,92.287 55.638,92.378 55.370 C 92.470 55.102,91.857 54.355,91.017 53.711 C 90.177 53.066,89.481 52.241,89.471 51.878 C 89.461 51.514,89.083 50.957,88.630 50.639 C 88.129 50.288,87.923 49.873,88.104 49.580 C 88.286 49.286,88.241 49.198,87.988 49.354 C 87.760 49.495,86.783 48.731,85.817 47.657 C 84.851 46.582,83.810 45.703,83.505 45.703 C 83.199 45.703,82.536 45.264,82.031 44.727 C 81.527 44.189,80.908 43.750,80.657 43.750 C 80.405 43.750,79.881 43.398,79.492 42.969 C 79.103 42.539,78.550 42.187,78.263 42.188 C 77.976 42.188,77.521 41.836,77.253 41.406 C 76.985 40.977,76.412 40.624,75.980 40.623 C 75.549 40.621,74.692 40.358,74.076 40.037 C 73.461 39.716,72.714 39.453,72.416 39.453 C 72.119 39.453,71.874 39.321,71.872 39.160 C 71.868 38.764,69.936 37.891,69.063 37.891 C 68.676 37.891,68.359 37.715,68.359 37.500 C 68.359 37.285,67.822 37.109,67.164 37.109 C 66.489 37.109,66.072 36.944,66.205 36.729 C 66.356 36.484,56.456 36.349,38.298 36.349 C 20.301 36.349,10.156 36.486,10.156 36.729 M136.719 36.726 C 136.719 36.937,136.191 37.109,135.547 37.109 C 134.902 37.109,134.375 37.285,134.375 37.500 C 134.375 37.715,134.146 37.891,133.866 37.891 C 133.586 37.891,132.760 38.506,132.031 39.258 C 131.302 40.010,130.389 40.625,130.001 40.625 C 129.372 40.625,129.119 41.047,129.248 41.887 C 129.272 42.044,128.845 42.466,128.298 42.824 C 127.750 43.183,127.395 43.711,127.507 44.003 C 127.619 44.294,127.540 44.531,127.331 44.531 C 127.123 44.531,126.953 45.136,126.953 45.875 C 126.953 46.615,126.777 47.328,126.563 47.461 C 126.339 47.599,126.172 49.606,126.172 52.148 C 126.172 54.691,126.339 56.698,126.563 56.836 C 126.777 56.969,126.953 57.780,126.953 58.638 C 126.953 60.274,128.270 63.672,128.904 63.672 C 129.106 63.672,129.180 63.913,129.067 64.207 C 128.954 64.502,129.146 64.852,129.494 64.986 C 129.843 65.120,130.013 65.415,129.872 65.642 C 129.578 66.118,130.729 68.750,131.232 68.750 C 131.416 68.750,131.471 69.120,131.353 69.571 C 131.235 70.023,131.295 70.506,131.487 70.645 C 132.024 71.035,132.813 72.577,132.813 73.237 C 132.813 73.562,132.988 73.828,133.203 73.828 C 133.418 73.828,133.594 74.180,133.594 74.609 C 133.594 75.039,133.770 75.391,133.984 75.391 C 134.199 75.391,134.375 75.741,134.375 76.169 C 134.375 77.132,135.622 80.078,136.030 80.078 C 136.194 80.078,136.328 80.430,136.328 80.859 C 136.328 81.289,136.504 81.641,136.719 81.641 C 136.934 81.641,137.109 82.045,137.109 82.539 C 137.109 83.033,137.320 83.648,137.578 83.906 C 137.836 84.164,137.927 84.375,137.780 84.375 C 137.633 84.375,137.862 84.996,138.288 85.754 C 138.714 86.513,139.063 87.394,139.063 87.712 C 139.063 88.359,139.854 89.905,140.382 90.288 C 140.571 90.425,140.597 90.745,140.440 90.998 C 140.268 91.277,140.452 91.536,140.905 91.655 C 141.482 91.806,141.615 92.112,141.486 92.996 C 141.386 93.677,141.494 94.141,141.753 94.141 C 141.992 94.141,142.188 94.492,142.188 94.922 C 142.188 95.352,142.363 95.703,142.578 95.703 C 142.793 95.703,142.969 96.104,142.969 96.593 C 142.969 97.083,143.320 97.737,143.750 98.047 C 144.249 98.406,144.531 99.058,144.531 99.849 C 144.531 100.590,144.767 101.179,145.117 101.313 C 145.439 101.437,145.703 101.948,145.703 102.449 C 145.703 103.488,146.534 105.461,146.973 105.466 C 147.134 105.467,147.266 105.820,147.266 106.250 C 147.266 106.680,147.441 107.031,147.656 107.031 C 147.871 107.031,148.047 107.260,148.047 107.539 C 148.047 108.200,148.953 110.149,149.262 110.153 C 149.394 110.155,149.417 110.596,149.314 111.133 C 149.205 111.703,149.309 112.109,149.564 112.109 C 149.804 112.109,150.000 112.637,150.000 113.281 C 150.000 113.926,150.176 114.453,150.391 114.453 C 150.605 114.453,150.781 114.717,150.781 115.039 C 150.781 115.361,150.952 115.625,151.160 115.625 C 151.368 115.625,151.437 115.887,151.314 116.208 C 151.189 116.535,151.355 116.891,151.693 117.021 C 152.026 117.149,152.196 117.508,152.074 117.827 C 151.835 118.448,153.094 121.094,153.628 121.094 C 153.806 121.094,153.856 121.250,153.738 121.440 C 153.621 121.631,153.786 122.004,154.106 122.269 C 154.426 122.535,154.688 123.151,154.688 123.639 C 154.688 124.127,154.951 124.627,155.273 124.751 C 155.616 124.882,155.859 125.467,155.859 126.160 C 155.859 126.811,156.035 127.344,156.250 127.344 C 156.465 127.344,156.641 127.706,156.641 128.148 C 156.641 128.590,156.816 128.844,157.031 128.711 C 157.257 128.571,157.422 128.947,157.422 129.604 C 157.422 130.229,157.761 131.045,158.177 131.421 C 158.592 131.797,158.844 132.334,158.736 132.614 C 158.629 132.894,158.790 133.356,159.094 133.640 C 159.398 133.924,159.566 134.469,159.466 134.852 C 159.366 135.234,159.480 135.547,159.720 135.547 C 159.960 135.547,160.156 135.805,160.156 136.121 C 160.156 136.437,160.508 137.321,160.938 138.086 C 161.367 138.851,161.719 139.823,161.719 140.246 C 161.719 140.669,161.895 141.016,162.109 141.016 C 162.324 141.016,162.501 141.323,162.502 141.699 C 162.503 142.075,162.942 143.248,163.478 144.304 C 164.014 145.361,164.453 146.548,164.453 146.941 C 164.453 147.334,164.725 147.656,165.056 147.656 C 165.388 147.656,165.632 147.876,165.600 148.145 C 165.507 148.908,166.069 150.391,166.452 150.391 C 166.642 150.391,166.797 150.742,166.797 151.172 C 166.797 151.602,166.973 151.953,167.188 151.953 C 167.402 151.953,167.578 152.382,167.578 152.907 C 167.578 153.431,167.754 153.969,167.969 154.102 C 168.184 154.234,168.359 154.684,168.359 155.101 C 168.359 155.518,168.530 155.859,168.738 155.859 C 168.946 155.859,169.012 156.130,168.886 156.460 C 168.759 156.790,168.967 157.405,169.349 157.827 C 169.731 158.249,169.906 158.594,169.739 158.594 C 169.572 158.594,169.647 158.849,169.906 159.161 C 170.165 159.473,170.263 160.088,170.123 160.528 C 169.970 161.011,170.044 161.328,170.309 161.328 C 170.551 161.328,170.641 161.152,170.508 160.938 C 170.375 160.723,170.453 160.547,170.680 160.547 C 170.908 160.547,171.094 160.898,171.094 161.328 C 171.094 161.758,171.270 162.109,171.484 162.109 C 171.699 162.109,171.875 162.461,171.875 162.891 C 171.875 163.320,172.030 163.672,172.220 163.672 C 172.629 163.672,173.154 165.158,173.069 166.079 C 173.036 166.436,173.194 166.842,173.419 166.981 C 173.644 167.120,173.828 167.575,173.828 167.992 C 173.828 168.409,174.004 168.750,174.219 168.750 C 174.434 168.750,174.609 169.277,174.609 169.922 C 174.609 170.566,174.785 171.094,175.000 171.094 C 175.215 171.094,175.391 171.357,175.391 171.680 C 175.391 172.002,175.578 172.266,175.808 172.266 C 176.041 172.266,176.120 172.596,175.987 173.014 C 175.856 173.426,175.921 173.869,176.131 173.998 C 176.632 174.308,177.734 176.531,177.734 177.232 C 177.734 177.533,177.910 177.672,178.125 177.539 C 178.340 177.406,178.516 177.649,178.516 178.079 C 178.516 178.509,178.684 178.964,178.889 179.091 C 179.095 179.218,179.154 179.605,179.021 179.952 C 178.887 180.302,179.035 180.774,179.355 181.014 C 179.975 181.478,180.552 182.647,180.629 183.594 C 180.699 184.458,182.167 187.500,182.514 187.500 C 182.678 187.500,182.813 187.852,182.813 188.281 C 182.813 188.711,182.988 189.063,183.203 189.063 C 183.418 189.063,183.595 189.370,183.596 189.746 C 183.597 190.122,183.861 190.933,184.182 191.549 C 184.503 192.164,184.766 193.175,184.766 193.795 C 184.766 194.415,184.941 194.922,185.156 194.922 C 185.371 194.922,185.547 195.273,185.547 195.703 C 185.547 196.133,185.723 196.484,185.938 196.484 C 186.152 196.484,186.328 196.882,186.328 197.367 C 186.328 197.852,186.665 198.460,187.077 198.717 C 187.593 199.039,187.756 199.452,187.602 200.042 C 187.466 200.562,187.603 201.067,187.952 201.328 C 188.577 201.797,189.128 202.933,189.246 203.999 C 189.288 204.372,189.705 205.010,190.174 205.417 C 190.667 205.844,190.931 206.407,190.799 206.750 C 190.674 207.076,190.760 207.459,190.989 207.601 C 191.218 207.743,191.406 208.200,191.406 208.617 C 191.406 209.034,191.582 209.375,191.797 209.375 C 192.012 209.375,192.188 209.808,192.188 210.338 C 192.188 210.901,192.512 211.474,192.969 211.719 C 193.454 211.979,193.751 212.538,193.752 213.197 C 193.754 213.781,194.017 214.761,194.338 215.377 C 194.659 215.992,194.922 216.827,194.922 217.232 C 194.922 217.637,195.098 217.969,195.313 217.969 C 195.527 217.969,195.703 218.320,195.703 218.750 C 195.703 219.180,195.846 219.531,196.021 219.531 C 196.196 219.531,196.580 220.146,196.875 220.898 C 197.170 221.650,197.566 222.266,197.755 222.266 C 197.945 222.266,197.993 222.600,197.863 223.009 C 197.729 223.432,197.971 224.364,198.423 225.170 C 198.861 225.949,199.219 226.932,199.219 227.356 C 199.219 227.779,199.395 228.125,199.609 228.125 C 199.824 228.125,200.000 228.477,200.000 228.906 C 200.000 229.336,200.244 229.688,200.542 229.688 C 200.853 229.688,201.195 230.272,201.341 231.055 C 201.482 231.807,201.766 232.422,201.971 232.422 C 202.176 232.422,202.344 232.949,202.344 233.594 C 202.344 234.238,202.520 234.766,202.734 234.766 C 202.949 234.766,203.125 235.128,203.125 235.570 C 203.125 236.012,203.301 236.266,203.516 236.133 C 203.742 235.993,203.906 236.369,203.906 237.026 C 203.906 237.660,204.247 238.468,204.678 238.859 C 205.103 239.243,205.354 239.714,205.236 239.905 C 204.981 240.317,205.919 242.578,206.345 242.578 C 206.508 242.578,206.641 243.105,206.641 243.750 C 206.641 244.395,206.784 244.922,206.958 244.922 C 207.133 244.922,207.517 245.537,207.813 246.289 C 208.108 247.041,208.511 247.656,208.708 247.656 C 208.906 247.656,208.969 247.914,208.848 248.230 C 208.727 248.545,208.796 248.907,209.001 249.034 C 209.207 249.161,209.375 249.684,209.375 250.195 C 209.375 250.707,209.551 251.234,209.766 251.367 C 209.980 251.500,210.156 251.950,210.156 252.367 C 210.156 252.784,210.332 253.125,210.547 253.125 C 210.762 253.125,210.938 253.389,210.938 253.711 C 210.938 254.033,211.113 254.297,211.328 254.297 C 211.543 254.297,211.719 254.648,211.719 255.078 C 211.719 255.508,211.895 255.859,212.109 255.859 C 212.324 255.859,212.500 256.299,212.500 256.836 C 212.500 257.373,212.683 257.813,212.908 257.813 C 213.132 257.813,213.287 258.032,213.252 258.301 C 213.123 259.294,213.292 259.805,213.672 259.570 C 213.900 259.429,214.063 259.827,214.063 260.524 C 214.063 261.181,214.219 261.719,214.410 261.719 C 214.601 261.719,214.869 262.317,215.006 263.048 C 215.143 263.779,215.512 264.476,215.824 264.596 C 216.145 264.719,216.293 265.076,216.163 265.415 C 216.036 265.745,216.127 266.016,216.364 266.016 C 216.602 266.016,216.797 266.455,216.797 266.992 C 216.797 267.529,216.973 267.969,217.188 267.969 C 217.402 267.969,217.578 268.320,217.578 268.750 C 217.578 269.180,217.754 269.531,217.969 269.531 C 218.184 269.531,218.359 269.949,218.359 270.460 C 218.359 270.971,218.623 271.608,218.945 271.875 C 219.268 272.142,219.531 272.867,219.531 273.485 C 219.531 274.104,219.707 274.609,219.922 274.609 C 220.137 274.609,220.313 274.961,220.313 275.391 C 220.313 275.820,220.488 276.172,220.703 276.172 C 220.918 276.172,221.094 276.488,221.094 276.875 C 221.094 277.735,221.964 279.680,222.351 279.684 C 222.505 279.686,222.531 279.950,222.408 280.270 C 222.283 280.597,222.448 280.954,222.786 281.084 C 223.117 281.211,223.293 281.562,223.177 281.865 C 223.061 282.168,223.248 282.523,223.592 282.656 C 223.937 282.788,224.219 283.306,224.219 283.808 C 224.219 284.309,224.381 284.820,224.579 284.942 C 224.778 285.065,225.058 285.702,225.202 286.359 C 225.346 287.016,225.685 287.638,225.955 287.741 C 226.242 287.851,226.370 288.329,226.264 288.887 C 226.158 289.440,226.265 289.844,226.517 289.844 C 226.757 289.844,226.953 290.195,226.953 290.625 C 226.953 291.055,227.096 291.406,227.271 291.406 C 227.446 291.406,227.830 292.021,228.125 292.773 C 228.420 293.525,228.804 294.141,228.979 294.141 C 229.154 294.141,229.298 294.624,229.299 295.215 C 229.299 295.806,229.739 297.154,230.275 298.211 C 230.811 299.268,231.250 300.454,231.250 300.847 C 231.250 301.241,231.405 301.563,231.595 301.563 C 231.997 301.563,232.529 303.041,232.449 303.939 C 232.419 304.279,232.817 304.875,233.334 305.263 C 233.886 305.678,234.202 306.242,234.100 306.632 C 234.004 306.997,234.291 307.944,234.737 308.737 C 235.182 309.531,235.547 310.526,235.547 310.949 C 235.547 311.373,235.794 311.719,236.096 311.719 C 236.453 311.719,236.574 311.992,236.441 312.500 C 236.327 312.937,236.429 313.281,236.673 313.281 C 236.913 313.281,237.109 313.721,237.109 314.258 C 237.109 314.795,237.285 315.234,237.500 315.234 C 237.715 315.234,237.891 315.586,237.891 316.016 C 237.891 316.445,238.066 316.797,238.281 316.797 C 238.496 316.797,238.672 317.159,238.672 317.601 C 238.672 318.044,238.848 318.297,239.063 318.164 C 239.277 318.031,239.453 318.274,239.453 318.704 C 239.453 319.134,239.641 319.601,239.870 319.743 C 240.100 319.885,240.193 320.247,240.078 320.547 C 239.963 320.848,240.039 321.094,240.247 321.094 C 240.455 321.094,240.625 321.523,240.625 322.047 C 240.625 322.572,240.801 323.109,241.016 323.242 C 241.230 323.375,241.406 323.913,241.406 324.437 C 241.406 324.962,241.582 325.391,241.797 325.391 C 242.012 325.391,242.188 325.742,242.188 326.172 C 242.188 326.602,242.330 326.953,242.505 326.953 C 242.680 326.953,243.064 327.568,243.359 328.320 C 243.654 329.072,244.042 329.688,244.221 329.688 C 244.400 329.688,244.431 330.146,244.291 330.706 C 244.150 331.266,244.191 331.837,244.381 331.976 C 244.915 332.363,245.703 333.907,245.703 334.565 C 245.703 334.890,245.879 335.156,246.094 335.156 C 246.309 335.156,246.484 335.420,246.484 335.742 C 246.484 336.064,246.672 336.328,246.901 336.328 C 247.141 336.328,247.212 336.661,247.070 337.111 C 246.904 337.632,247.027 337.973,247.434 338.130 C 247.771 338.259,248.047 338.698,248.047 339.104 C 248.047 339.511,248.223 339.844,248.438 339.844 C 248.652 339.844,248.828 340.195,248.828 340.625 C 248.828 341.055,249.024 341.406,249.264 341.406 C 249.508 341.406,249.610 341.751,249.496 342.188 C 249.363 342.695,249.484 342.969,249.841 342.969 C 250.173 342.969,250.391 343.372,250.391 343.987 C 250.391 344.607,250.772 345.305,251.367 345.773 C 251.904 346.195,252.344 346.803,252.344 347.124 C 252.344 347.444,252.881 348.159,253.537 348.711 C 254.196 349.265,254.639 349.954,254.526 350.248 C 254.413 350.541,254.487 350.781,254.690 350.781 C 255.078 350.781,260.258 356.047,260.482 356.669 C 260.553 356.868,260.943 357.031,261.348 357.031 C 261.843 357.031,262.011 357.224,261.860 357.617 C 261.724 357.972,261.859 358.203,262.203 358.203 C 263.049 358.203,265.011 359.261,265.818 360.153 C 266.208 360.585,266.764 360.937,267.053 360.937 C 267.342 360.937,267.579 361.069,267.581 361.230 C 267.585 361.581,269.476 362.500,270.195 362.500 C 270.474 362.500,270.703 362.676,270.703 362.891 C 270.703 363.105,271.055 363.281,271.484 363.281 C 271.914 363.281,272.267 363.413,272.269 363.574 C 272.273 363.965,274.200 364.844,275.055 364.844 C 275.429 364.844,275.844 365.020,275.977 365.234 C 276.109 365.449,276.911 365.625,277.757 365.625 C 278.604 365.625,279.297 365.798,279.297 366.010 C 279.297 366.693,334.574 366.522,335.141 365.838 C 335.396 365.532,335.837 365.370,336.122 365.480 C 336.407 365.589,336.756 365.490,336.898 365.261 C 337.039 365.032,337.497 364.844,337.914 364.844 C 338.331 364.844,338.672 364.668,338.672 364.453 C 338.672 364.238,338.892 364.057,339.160 364.051 C 340.040 364.030,344.141 359.893,344.141 359.026 C 344.141 358.573,344.281 358.203,344.453 358.203 C 345.550 358.203,346.366 345.769,345.313 345.117 C 345.098 344.984,344.922 344.359,344.922 343.727 C 344.922 343.095,344.746 342.578,344.531 342.578 C 344.316 342.578,344.141 342.139,344.141 341.602 C 344.141 341.064,343.965 340.625,343.750 340.625 C 343.535 340.625,343.359 340.273,343.359 339.844 C 343.359 339.414,343.200 339.063,343.005 339.063 C 342.811 339.063,342.735 338.743,342.837 338.352 C 342.939 337.961,342.758 337.420,342.433 337.151 C 342.109 336.882,341.940 336.411,342.057 336.104 C 342.188 335.764,342.027 335.547,341.643 335.547 C 341.279 335.547,341.016 335.224,341.016 334.778 C 341.016 334.354,340.693 333.432,340.298 332.727 C 339.903 332.022,339.654 331.226,339.744 330.957 C 339.835 330.688,339.718 330.469,339.486 330.469 C 339.253 330.469,339.063 330.117,339.063 329.688 C 339.063 329.258,338.887 328.906,338.672 328.906 C 338.457 328.906,338.281 328.590,338.281 328.203 C 338.281 327.330,337.408 325.398,337.012 325.394 C 336.851 325.392,336.719 325.039,336.719 324.609 C 336.719 324.180,336.563 323.828,336.374 323.828 C 335.964 323.828,335.440 322.342,335.524 321.421 C 335.557 321.064,335.400 320.658,335.175 320.519 C 334.950 320.380,334.766 319.925,334.766 319.508 C 334.766 319.091,334.590 318.750,334.375 318.750 C 334.160 318.750,333.984 318.398,333.984 317.969 C 333.984 317.539,333.829 317.188,333.639 317.188 C 333.284 317.188,332.817 316.010,332.641 314.668 C 332.586 314.250,332.348 313.843,332.113 313.764 C 331.877 313.686,331.781 313.369,331.900 313.061 C 332.018 312.752,331.920 312.500,331.682 312.500 C 331.445 312.500,331.250 312.231,331.250 311.902 C 331.250 311.573,330.997 311.207,330.689 311.088 C 330.380 310.970,330.216 310.642,330.325 310.359 C 330.433 310.076,330.334 309.729,330.105 309.587 C 329.875 309.445,329.688 308.812,329.688 308.180 C 329.688 307.385,329.494 307.031,329.060 307.031 C 328.668 307.031,328.515 306.815,328.652 306.458 C 328.773 306.142,328.704 305.781,328.499 305.654 C 328.293 305.527,328.125 304.994,328.125 304.469 C 328.125 303.945,327.982 303.516,327.807 303.516 C 327.633 303.516,327.248 302.900,326.953 302.148 C 326.658 301.396,326.274 300.781,326.099 300.781 C 325.924 300.781,325.781 300.254,325.781 299.609 C 325.781 298.965,325.622 298.438,325.427 298.438 C 325.232 298.437,325.155 298.123,325.256 297.739 C 325.359 297.343,325.089 296.724,324.633 296.311 C 324.180 295.900,323.828 295.097,323.828 294.471 C 323.828 293.859,323.696 293.358,323.535 293.356 C 323.160 293.352,322.266 291.440,322.266 290.641 C 322.266 290.306,321.936 289.826,321.533 289.574 C 321.021 289.254,320.859 288.816,320.993 288.113 C 321.106 287.520,321.006 287.109,320.749 287.109 C 320.509 287.109,320.313 286.758,320.313 286.328 C 320.313 285.898,320.137 285.547,319.922 285.547 C 319.707 285.547,319.531 285.195,319.531 284.766 C 319.531 284.336,319.399 283.983,319.238 283.981 C 318.782 283.977,317.969 281.986,317.969 280.875 C 317.969 280.290,317.636 279.668,317.166 279.374 C 316.636 279.043,316.442 278.628,316.594 278.150 C 316.726 277.733,316.553 277.155,316.186 276.789 C 315.836 276.439,315.645 275.902,315.762 275.596 C 315.906 275.221,315.785 275.113,315.390 275.265 C 314.926 275.442,314.858 275.276,315.061 274.467 C 315.245 273.734,315.146 273.379,314.715 273.213 C 314.383 273.086,314.201 272.751,314.309 272.468 C 314.418 272.185,314.319 271.838,314.089 271.696 C 313.860 271.554,313.672 271.051,313.672 270.579 C 313.672 270.106,313.320 269.500,312.891 269.231 C 312.461 268.963,312.109 268.420,312.109 268.025 C 312.109 267.631,311.807 266.709,311.438 265.978 C 311.069 265.247,310.815 264.352,310.873 263.989 C 310.931 263.627,310.618 263.137,310.177 262.902 C 309.699 262.646,309.375 262.081,309.375 261.504 C 309.375 260.508,308.689 258.997,308.019 258.517 C 307.811 258.368,307.760 258.125,307.908 257.978 C 308.055 257.830,307.971 257.337,307.720 256.882 C 307.469 256.427,307.221 255.794,307.169 255.476 C 307.117 255.157,306.898 254.839,306.684 254.767 C 306.469 254.696,306.391 254.385,306.509 254.076 C 306.641 253.732,306.481 253.516,306.096 253.516 C 305.729 253.516,305.469 253.192,305.469 252.734 C 305.469 252.305,305.315 251.953,305.128 251.953 C 304.941 251.953,304.679 251.273,304.546 250.441 C 304.413 249.610,304.063 248.730,303.769 248.486 C 303.464 248.232,303.314 247.624,303.420 247.068 C 303.529 246.500,303.425 246.094,303.171 246.094 C 302.931 246.094,302.734 245.742,302.734 245.313 C 302.734 244.883,302.559 244.531,302.344 244.531 C 302.129 244.531,301.953 244.268,301.953 243.945 C 301.953 243.623,301.777 243.359,301.563 243.359 C 301.348 243.359,301.172 243.008,301.172 242.578 C 301.172 242.148,300.996 241.797,300.781 241.797 C 300.566 241.797,300.390 241.401,300.389 240.918 C 300.388 240.435,299.949 239.174,299.412 238.117 C 298.876 237.060,298.438 235.962,298.438 235.676 C 298.438 235.390,298.262 235.156,298.047 235.156 C 297.832 235.156,297.656 234.717,297.656 234.180 C 297.656 233.643,297.486 233.203,297.278 233.203 C 297.070 233.203,297.000 232.941,297.123 232.620 C 297.249 232.293,297.083 231.937,296.745 231.807 C 296.414 231.680,296.238 231.328,296.354 231.026 C 296.470 230.723,296.310 230.377,295.997 230.257 C 295.634 230.118,295.495 229.692,295.611 229.082 C 295.744 228.386,295.622 228.125,295.163 228.125 C 294.763 228.125,294.531 227.793,294.531 227.222 C 294.531 226.725,294.223 225.978,293.846 225.562 C 293.469 225.145,293.218 224.409,293.287 223.926 C 293.357 223.442,293.226 223.047,292.996 223.047 C 292.766 223.047,292.578 222.695,292.578 222.266 C 292.578 221.836,292.435 221.484,292.260 221.484 C 292.086 221.484,291.701 220.869,291.406 220.117 C 291.111 219.365,290.708 218.750,290.509 218.750 C 290.311 218.750,290.218 218.155,290.303 217.427 C 290.411 216.504,290.315 216.159,289.984 216.286 C 289.663 216.409,289.584 216.187,289.738 215.595 C 289.896 214.992,289.827 214.808,289.515 215.001 C 289.218 215.184,289.063 214.944,289.063 214.304 C 289.063 213.767,288.887 213.219,288.672 213.086 C 288.457 212.953,288.281 212.503,288.281 212.086 C 288.281 211.669,288.126 211.328,287.936 211.328 C 287.648 211.328,287.392 210.816,286.961 209.375 C 286.928 209.268,286.733 208.916,286.527 208.594 C 286.321 208.271,286.203 207.699,286.265 207.322 C 286.327 206.944,286.114 206.534,285.792 206.410 C 285.469 206.287,285.301 205.936,285.418 205.632 C 285.535 205.327,285.436 205.078,285.198 205.078 C 284.960 205.078,284.766 204.727,284.766 204.297 C 284.766 203.867,284.590 203.516,284.375 203.516 C 284.160 203.516,283.984 203.164,283.984 202.734 C 283.984 202.305,283.831 201.953,283.643 201.953 C 283.455 201.953,283.301 201.494,283.301 200.932 C 283.301 200.371,283.133 199.799,282.928 199.663 C 282.722 199.526,282.306 198.843,282.002 198.145 C 281.698 197.446,281.305 196.875,281.128 196.875 C 280.951 196.875,280.919 196.523,281.055 196.092 C 281.221 195.571,281.098 195.230,280.691 195.073 C 280.354 194.944,280.078 194.506,280.078 194.099 C 280.078 193.692,279.918 193.359,279.722 193.359 C 279.526 193.359,279.241 192.625,279.090 191.726 C 278.938 190.828,278.483 189.505,278.079 188.785 C 277.675 188.065,277.344 187.172,277.344 186.801 C 277.344 186.429,276.990 185.904,276.557 185.634 C 276.001 185.287,275.835 184.882,275.992 184.257 C 276.137 183.678,275.936 183.051,275.412 182.446 C 274.970 181.937,274.609 181.109,274.609 180.604 C 274.609 180.100,274.434 179.688,274.219 179.688 C 274.004 179.688,273.828 179.336,273.828 178.906 C 273.828 178.477,273.652 178.125,273.438 178.125 C 273.223 178.125,273.047 177.896,273.047 177.617 C 273.047 176.875,272.123 175.007,271.754 175.003 C 271.580 175.001,271.538 174.838,271.660 174.641 C 271.782 174.443,271.617 174.016,271.293 173.692 C 270.968 173.368,270.703 172.739,270.703 172.294 C 270.703 171.848,270.527 171.484,270.313 171.484 C 270.098 171.484,269.922 171.153,269.922 170.748 C 269.922 170.343,269.659 169.508,269.338 168.892 C 269.017 168.277,268.754 167.405,268.752 166.955 C 268.751 166.505,268.398 165.819,267.969 165.430 C 267.539 165.041,267.188 164.433,267.188 164.080 C 267.188 163.227,266.295 161.335,265.892 161.331 C 265.716 161.329,265.675 161.006,265.800 160.612 C 265.940 160.169,265.727 159.626,265.240 159.185 C 264.807 158.793,264.453 158.154,264.453 157.764 C 264.453 157.374,264.102 156.429,263.672 155.664 C 263.242 154.899,262.891 153.839,262.891 153.308 C 262.891 152.778,262.715 152.344,262.500 152.344 C 262.285 152.344,262.109 152.080,262.109 151.758 C 262.109 151.436,261.923 151.172,261.696 151.172 C 261.468 151.172,261.384 151.007,261.509 150.805 C 261.634 150.603,261.499 150.217,261.210 149.946 C 260.921 149.676,260.762 149.051,260.857 148.556 C 260.953 148.051,260.837 147.656,260.592 147.656 C 260.353 147.656,260.156 147.305,260.156 146.875 C 260.156 146.416,259.896 146.094,259.525 146.094 C 259.086 146.094,258.955 145.856,259.098 145.313 C 259.223 144.835,259.110 144.531,258.807 144.531 C 258.489 144.531,258.378 144.181,258.498 143.555 C 258.607 142.985,258.503 142.578,258.249 142.578 C 258.009 142.578,257.813 142.227,257.813 141.797 C 257.813 141.367,257.637 141.016,257.422 141.016 C 257.207 141.016,257.031 140.664,257.031 140.234 C 257.031 139.805,256.876 139.453,256.686 139.453 C 256.336 139.453,255.868 138.287,255.691 136.976 C 255.638 136.580,255.384 136.127,255.128 135.968 C 254.871 135.809,254.774 135.386,254.911 135.027 C 255.080 134.588,254.961 134.375,254.546 134.375 C 254.160 134.375,254.014 134.157,254.156 133.789 C 254.279 133.467,254.186 133.203,253.948 133.203 C 253.710 133.203,253.516 132.852,253.516 132.422 C 253.516 131.992,253.340 131.641,253.125 131.641 C 252.910 131.641,252.734 131.113,252.734 130.469 C 252.734 129.824,252.579 129.297,252.389 129.297 C 252.054 129.297,251.658 128.359,251.316 126.758 C 251.224 126.328,250.988 125.921,250.792 125.854 C 250.595 125.786,250.531 125.480,250.648 125.173 C 250.766 124.867,250.600 124.515,250.279 124.392 C 249.916 124.253,249.774 123.868,249.904 123.372 C 250.018 122.934,249.955 122.462,249.763 122.323 C 249.255 121.955,247.656 118.771,247.656 118.127 C 247.656 117.825,247.486 117.578,247.278 117.578 C 247.070 117.578,246.996 117.326,247.115 117.017 C 247.236 116.701,246.885 116.070,246.310 115.570 C 245.733 115.068,245.384 114.440,245.506 114.121 C 245.625 113.812,245.437 113.244,245.088 112.859 C 244.740 112.474,244.570 111.972,244.711 111.743 C 244.853 111.514,244.677 111.328,244.317 111.328 C 243.924 111.328,243.748 111.115,243.873 110.789 C 244.131 110.116,243.203 107.318,242.842 107.679 C 242.697 107.824,242.578 107.428,242.578 106.800 C 242.578 106.105,242.291 105.477,241.845 105.199 C 241.390 104.915,241.011 104.065,240.845 102.957 C 240.689 101.919,240.370 101.172,240.083 101.172 C 239.756 101.172,239.647 100.775,239.760 100.000 C 239.864 99.297,239.759 98.828,239.497 98.828 C 239.258 98.828,239.063 98.564,239.063 98.242 C 239.063 97.920,238.887 97.656,238.672 97.656 C 238.457 97.656,238.281 97.305,238.281 96.875 C 238.281 96.445,238.111 96.094,237.903 96.094 C 237.695 96.094,237.619 95.848,237.734 95.547 C 237.850 95.247,237.756 94.885,237.527 94.743 C 237.297 94.601,237.109 94.157,237.109 93.755 C 237.109 93.353,236.854 92.769,236.542 92.457 C 236.230 92.145,236.058 91.806,236.161 91.704 C 236.263 91.601,236.079 91.295,235.752 91.023 C 235.424 90.752,235.156 90.154,235.156 89.695 C 235.156 89.235,234.805 88.640,234.375 88.372 C 233.945 88.104,233.593 87.490,233.593 87.008 C 233.592 86.527,232.977 84.912,232.225 83.421 C 231.474 81.929,230.859 80.391,230.859 80.003 C 230.859 79.615,230.665 79.297,230.427 79.297 C 230.189 79.297,230.098 79.027,230.225 78.696 C 230.354 78.361,230.211 78.001,229.901 77.883 C 229.596 77.766,229.442 77.421,229.559 77.116 C 229.675 76.812,229.576 76.563,229.339 76.563 C 229.101 76.563,228.906 76.133,228.906 75.609 C 228.906 75.085,228.730 74.547,228.516 74.414 C 228.301 74.281,228.125 73.744,228.125 73.219 C 228.125 72.695,227.949 72.266,227.734 72.266 C 227.520 72.266,227.344 71.826,227.344 71.289 C 227.344 70.752,227.182 70.313,226.984 70.313 C 226.786 70.313,226.506 69.773,226.361 69.114 C 226.217 68.455,225.877 67.831,225.607 67.727 C 225.321 67.618,225.192 67.140,225.299 66.582 C 225.405 66.029,225.298 65.625,225.046 65.625 C 224.806 65.625,224.609 65.273,224.609 64.844 C 224.609 64.410,224.349 64.063,224.023 64.063 C 223.667 64.063,223.438 63.699,223.438 63.134 C 223.438 62.623,223.174 61.986,222.852 61.719 C 222.529 61.451,222.266 60.733,222.266 60.122 C 222.266 59.412,221.984 58.861,221.484 58.594 C 221.055 58.364,220.703 57.873,220.703 57.502 C 220.703 57.132,220.356 56.612,219.933 56.347 C 219.481 56.065,219.256 55.623,219.389 55.277 C 219.513 54.953,219.439 54.688,219.224 54.688 C 218.698 54.688,216.406 52.523,216.406 52.027 C 216.406 51.494,211.656 46.485,211.147 46.481 C 210.924 46.479,210.095 45.864,209.303 45.114 C 208.512 44.364,207.704 43.750,207.508 43.750 C 207.313 43.750,206.834 43.398,206.445 42.969 C 206.056 42.539,205.529 42.187,205.273 42.188 C 205.018 42.188,204.530 41.879,204.189 41.503 C 203.848 41.126,202.678 40.472,201.589 40.049 C 200.500 39.627,199.609 39.144,199.609 38.977 C 199.609 38.809,199.258 38.672,198.828 38.672 C 198.398 38.672,198.047 38.496,198.047 38.281 C 198.047 38.066,197.432 37.891,196.680 37.891 C 195.928 37.891,195.313 37.715,195.313 37.500 C 195.313 37.285,194.961 37.109,194.531 37.109 C 194.102 37.109,193.750 36.937,193.750 36.727 C 193.750 36.482,183.558 36.345,165.234 36.343 C 146.819 36.342,136.719 36.478,136.719 36.726 M266.406 36.728 C 266.406 36.938,265.977 37.109,265.453 37.109 C 264.928 37.109,264.391 37.285,264.258 37.500 C 264.125 37.715,263.626 37.891,263.149 37.891 C 262.672 37.891,262.028 38.242,261.719 38.672 C 261.409 39.102,260.963 39.453,260.727 39.453 C 260.111 39.453,257.422 41.922,257.422 42.487 C 257.422 42.748,257.070 43.182,256.641 43.450 C 256.211 43.718,255.859 44.325,255.859 44.797 C 255.859 45.270,255.684 45.766,255.469 45.898 C 255.254 46.031,255.078 46.559,255.078 47.070 C 255.078 47.582,254.902 48.109,254.688 48.242 C 254.473 48.375,254.297 49.166,254.297 50.000 C 254.297 50.834,254.473 51.625,254.688 51.758 C 254.902 51.891,255.078 52.604,255.078 53.343 C 255.078 54.083,255.254 54.688,255.469 54.688 C 255.684 54.688,255.859 55.297,255.859 56.041 C 255.859 56.995,256.090 57.518,256.641 57.813 C 257.105 58.061,257.422 58.630,257.422 59.215 C 257.422 60.440,258.862 63.672,259.408 63.672 C 259.630 63.672,259.702 63.849,259.569 64.065 C 259.435 64.282,259.606 64.566,259.948 64.697 C 260.347 64.851,260.487 65.200,260.337 65.671 C 260.178 66.173,260.294 66.406,260.704 66.406 C 261.075 66.406,261.218 66.628,261.080 66.989 C 260.957 67.309,261.112 67.670,261.425 67.790 C 261.787 67.929,261.927 68.355,261.811 68.965 C 261.705 69.518,261.812 69.922,262.064 69.922 C 262.304 69.922,262.500 70.273,262.500 70.703 C 262.500 71.133,262.676 71.484,262.891 71.484 C 263.105 71.484,263.281 72.012,263.281 72.656 C 263.281 73.301,263.413 73.829,263.574 73.831 C 263.961 73.835,264.844 75.759,264.844 76.599 C 264.844 76.962,265.107 77.361,265.430 77.485 C 265.772 77.616,266.016 78.202,266.016 78.894 C 266.016 79.545,266.191 80.078,266.406 80.078 C 266.621 80.078,266.797 80.430,266.797 80.859 C 266.797 81.289,266.973 81.641,267.188 81.641 C 267.402 81.641,267.578 82.045,267.578 82.539 C 267.578 83.033,267.789 83.648,268.047 83.906 C 268.305 84.164,268.402 84.375,268.263 84.375 C 268.124 84.375,268.528 85.360,269.161 86.563 C 269.795 87.767,270.313 89.085,270.313 89.493 C 270.313 89.901,270.488 90.234,270.703 90.234 C 270.918 90.234,271.094 90.586,271.094 91.016 C 271.094 91.445,271.237 91.797,271.411 91.797 C 271.586 91.797,271.971 92.412,272.266 93.164 C 272.561 93.916,272.945 94.531,273.120 94.531 C 273.295 94.531,273.438 94.936,273.438 95.430 C 273.438 96.459,274.270 98.430,274.707 98.434 C 274.868 98.436,275.000 98.789,275.000 99.219 C 275.000 99.648,275.162 100.000,275.360 100.000 C 275.557 100.000,275.836 100.571,275.978 101.270 C 276.318 102.934,277.068 104.688,277.439 104.688 C 277.602 104.688,277.734 105.215,277.734 105.859 C 277.734 106.504,277.910 107.031,278.125 107.031 C 278.340 107.031,278.516 107.294,278.516 107.615 C 278.516 108.429,279.808 111.328,280.170 111.328 C 280.334 111.328,280.469 111.645,280.469 112.031 C 280.469 112.912,281.343 114.837,281.746 114.841 C 281.911 114.842,281.936 115.282,281.802 115.817 C 281.631 116.498,281.738 116.859,282.160 117.021 C 282.492 117.148,282.668 117.500,282.552 117.802 C 282.436 118.105,282.623 118.461,282.967 118.593 C 283.312 118.725,283.594 119.166,283.594 119.573 C 283.594 119.980,283.749 120.313,283.939 120.313 C 284.351 120.313,284.873 121.802,284.786 122.729 C 284.753 123.092,285.086 123.581,285.526 123.817 C 286.058 124.102,286.328 124.636,286.328 125.404 C 286.328 126.041,286.504 126.563,286.719 126.563 C 286.934 126.563,287.109 126.914,287.109 127.344 C 287.109 127.773,287.285 128.125,287.500 128.125 C 287.715 128.125,287.891 128.564,287.891 129.102 C 287.891 129.639,288.066 130.078,288.281 130.078 C 288.496 130.078,288.672 130.307,288.672 130.586 C 288.672 131.292,289.588 133.196,289.929 133.200 C 290.084 133.202,290.111 133.462,289.989 133.778 C 289.749 134.404,290.632 136.719,291.111 136.719 C 291.273 136.719,291.406 137.070,291.406 137.500 C 291.406 137.930,291.594 138.281,291.823 138.281 C 292.053 138.281,292.136 138.608,292.010 139.007 C 291.877 139.427,292.031 139.942,292.374 140.227 C 292.701 140.499,292.969 140.900,292.969 141.118 C 292.969 141.714,294.629 144.922,294.937 144.922 C 295.084 144.922,295.120 145.361,295.017 145.898 C 294.881 146.614,294.999 146.875,295.462 146.875 C 295.833 146.875,296.094 147.197,296.094 147.656 C 296.094 148.086,296.253 148.438,296.448 148.438 C 296.643 148.437,296.707 148.800,296.591 149.243 C 296.449 149.786,296.652 150.239,297.214 150.633 C 297.743 151.004,298.047 151.635,298.047 152.366 C 298.047 152.998,298.223 153.516,298.438 153.516 C 298.652 153.516,298.828 153.867,298.828 154.297 C 298.828 154.727,299.004 155.078,299.219 155.078 C 299.434 155.078,299.609 155.430,299.609 155.859 C 299.609 156.289,299.804 156.641,300.042 156.641 C 300.280 156.641,300.379 156.890,300.262 157.194 C 300.145 157.499,300.313 157.849,300.635 157.973 C 300.958 158.096,301.109 158.379,300.973 158.600 C 300.693 159.052,301.591 161.328,302.048 161.328 C 302.211 161.328,302.344 161.844,302.344 162.474 C 302.344 163.293,302.577 163.693,303.161 163.879 C 303.744 164.064,303.919 164.363,303.771 164.926 C 303.658 165.360,303.757 166.090,303.992 166.549 C 304.940 168.401,305.078 168.768,305.078 169.433 C 305.078 169.815,305.474 170.301,305.957 170.513 C 306.586 170.789,306.799 171.164,306.705 171.831 C 306.632 172.344,306.720 172.871,306.900 173.003 C 307.479 173.427,308.203 174.967,308.203 175.776 C 308.203 176.209,308.379 176.563,308.594 176.563 C 308.809 176.563,308.984 176.770,308.984 177.024 C 308.984 177.747,310.651 181.250,310.995 181.250 C 311.165 181.250,311.211 181.491,311.098 181.785 C 310.986 182.079,311.255 182.963,311.697 183.750 C 312.138 184.536,312.500 185.438,312.500 185.754 C 312.500 186.070,312.676 186.328,312.891 186.328 C 313.105 186.328,313.281 186.592,313.281 186.914 C 313.281 187.236,313.437 187.500,313.628 187.500 C 313.818 187.500,314.092 188.287,314.236 189.249 C 314.380 190.210,314.664 191.100,314.866 191.225 C 315.069 191.350,315.234 191.881,315.234 192.406 C 315.234 192.930,315.410 193.359,315.625 193.359 C 315.840 193.359,316.016 193.711,316.016 194.141 C 316.016 194.570,316.191 194.922,316.406 194.922 C 316.621 194.922,316.797 195.273,316.797 195.703 C 316.797 196.133,316.967 196.484,317.175 196.484 C 317.383 196.484,317.452 196.748,317.329 197.070 C 317.186 197.441,317.334 197.656,317.732 197.656 C 318.157 197.656,318.359 198.005,318.359 198.734 C 318.359 199.362,318.663 200.002,319.086 200.266 C 319.506 200.528,319.920 201.396,320.069 202.328 C 320.213 203.228,320.591 204.038,320.928 204.167 C 321.270 204.298,321.432 204.652,321.303 204.988 C 321.058 205.625,321.877 207.813,322.361 207.813 C 322.523 207.813,322.656 208.213,322.656 208.702 C 322.656 209.192,323.008 209.893,323.438 210.261 C 323.867 210.629,324.220 211.327,324.221 211.813 C 324.222 212.298,324.486 213.199,324.807 213.814 C 325.128 214.430,325.391 215.258,325.391 215.656 C 325.391 216.053,325.742 216.567,326.172 216.797 C 326.683 217.071,326.953 217.615,326.953 218.373 C 326.953 219.010,327.108 219.531,327.298 219.531 C 327.744 219.531,328.223 221.039,328.136 222.168 C 328.095 222.709,328.288 223.047,328.640 223.047 C 328.953 223.047,329.195 223.267,329.177 223.535 C 329.126 224.269,330.842 227.734,331.256 227.734 C 331.454 227.734,331.524 227.975,331.411 228.269 C 331.298 228.563,331.567 229.447,332.009 230.234 C 332.451 231.021,332.813 231.972,332.813 232.348 C 332.813 232.723,333.164 233.284,333.594 233.594 C 334.023 233.903,334.375 234.547,334.375 235.024 C 334.375 235.501,334.563 236.007,334.792 236.149 C 335.022 236.291,335.117 236.647,335.005 236.941 C 334.892 237.235,334.968 237.579,335.173 237.706 C 335.379 237.833,335.547 238.251,335.547 238.634 C 335.547 239.018,335.898 239.650,336.328 240.039 C 336.758 240.428,337.109 241.158,337.109 241.662 C 337.109 242.166,337.285 242.578,337.500 242.578 C 337.715 242.578,337.891 242.930,337.891 243.359 C 337.891 243.789,338.066 244.141,338.281 244.141 C 338.496 244.141,338.672 244.492,338.672 244.922 C 338.672 245.352,338.858 245.703,339.086 245.703 C 339.313 245.703,339.395 245.872,339.268 246.078 C 339.140 246.284,339.218 246.811,339.440 247.250 C 339.662 247.688,340.020 248.396,340.234 248.823 C 340.449 249.250,340.625 249.865,340.625 250.190 C 340.625 250.515,340.801 250.781,341.016 250.781 C 341.230 250.781,341.406 251.050,341.406 251.379 C 341.406 251.708,341.659 252.075,341.968 252.193 C 342.276 252.311,342.433 252.658,342.316 252.962 C 342.200 253.267,342.299 253.516,342.536 253.516 C 342.774 253.516,342.969 254.043,342.969 254.688 C 342.969 255.332,343.145 255.859,343.359 255.859 C 343.574 255.859,343.750 256.211,343.750 256.641 C 343.750 257.070,343.926 257.422,344.141 257.422 C 344.355 257.422,344.531 257.861,344.531 258.398 C 344.531 258.936,344.692 259.375,344.888 259.375 C 345.083 259.375,345.366 260.096,345.514 260.976 C 345.663 261.857,346.118 262.863,346.525 263.212 C 346.932 263.560,347.266 264.334,347.266 264.931 C 347.266 265.527,347.421 266.016,347.611 266.016 C 347.974 266.016,348.474 267.249,348.634 268.538 C 348.687 268.959,348.927 269.369,349.169 269.450 C 349.411 269.530,349.609 269.876,349.609 270.218 C 349.609 271.342,352.504 276.738,353.607 277.671 C 354.201 278.174,354.688 278.737,354.688 278.923 C 354.688 279.334,356.566 281.255,356.951 281.238 C 357.533 281.212,359.375 279.305,359.375 278.730 C 359.375 278.397,359.571 278.125,359.811 278.125 C 360.066 278.125,360.170 277.718,360.061 277.148 C 359.958 276.611,359.981 276.171,360.113 276.169 C 360.466 276.164,361.328 274.172,361.328 273.360 C 361.328 272.973,361.504 272.656,361.719 272.656 C 361.934 272.656,362.109 272.305,362.109 271.875 C 362.109 271.445,362.285 271.094,362.500 271.094 C 362.715 271.094,362.891 270.594,362.891 269.982 C 362.891 269.356,363.242 268.553,363.696 268.142 C 364.139 267.741,364.422 267.110,364.325 266.740 C 364.228 266.369,364.413 265.965,364.736 265.841 C 365.096 265.702,365.245 265.316,365.120 264.839 C 365.008 264.412,365.073 264.062,365.264 264.063 C 365.454 264.063,365.730 263.579,365.877 262.988 C 366.024 262.397,366.474 261.326,366.876 260.607 C 367.282 259.881,367.502 258.969,367.371 258.556 C 367.241 258.147,367.279 257.811,367.454 257.809 C 367.872 257.805,368.750 255.901,368.750 255.000 C 368.750 254.613,368.883 254.297,369.045 254.297 C 369.475 254.297,370.407 252.039,370.213 251.465 C 370.123 251.196,370.288 250.800,370.580 250.585 C 370.872 250.369,371.224 249.490,371.361 248.632 C 371.498 247.773,371.933 246.786,372.328 246.439 C 372.723 246.091,373.047 245.432,373.047 244.974 C 373.047 244.516,373.223 244.141,373.438 244.141 C 373.652 244.141,373.828 243.712,373.828 243.187 C 373.828 242.663,374.016 242.118,374.245 241.976 C 374.475 241.834,374.568 241.472,374.453 241.171 C 374.338 240.871,374.414 240.625,374.622 240.625 C 374.830 240.625,375.000 240.204,375.000 239.690 C 375.000 239.176,375.282 238.647,375.626 238.515 C 375.984 238.378,376.157 238.025,376.029 237.692 C 375.906 237.372,375.976 237.109,376.184 237.109 C 376.392 237.109,376.563 236.767,376.563 236.348 C 376.563 235.929,376.852 235.423,377.207 235.225 C 377.624 234.992,377.775 234.571,377.634 234.034 C 377.483 233.457,377.597 233.203,378.008 233.203 C 378.360 233.203,378.513 232.977,378.385 232.646 C 378.268 232.339,378.429 231.875,378.743 231.614 C 379.067 231.345,379.215 230.826,379.084 230.414 C 378.957 230.014,379.041 229.688,379.271 229.688 C 379.500 229.688,379.688 229.424,379.688 229.102 C 379.688 228.779,379.863 228.516,380.078 228.516 C 380.293 228.516,380.469 227.999,380.469 227.367 C 380.469 226.735,380.657 226.102,380.886 225.960 C 381.115 225.818,381.214 225.471,381.106 225.188 C 380.997 224.905,381.180 224.570,381.511 224.443 C 381.933 224.281,382.041 223.920,381.870 223.239 C 381.736 222.703,381.761 222.264,381.926 222.263 C 382.328 222.258,383.203 220.334,383.203 219.453 C 383.203 219.067,383.335 218.749,383.496 218.747 C 383.892 218.743,384.766 216.811,384.766 215.938 C 384.766 215.551,384.952 215.234,385.179 215.234 C 385.407 215.234,385.477 215.048,385.336 214.819 C 385.195 214.591,385.382 214.070,385.751 213.662 C 386.121 213.254,386.326 212.666,386.207 212.356 C 386.088 212.046,386.330 211.485,386.745 211.109 C 387.160 210.733,387.500 210.003,387.500 209.487 C 387.500 208.960,387.672 208.654,387.891 208.789 C 388.105 208.922,388.281 208.679,388.281 208.249 C 388.281 207.820,388.457 207.359,388.672 207.227 C 388.887 207.094,389.063 206.556,389.063 206.032 C 389.063 205.507,389.194 205.077,389.355 205.075 C 389.824 205.070,390.625 203.066,390.625 201.898 C 390.625 201.309,390.813 200.711,391.042 200.569 C 391.272 200.428,391.371 200.080,391.262 199.798 C 391.154 199.515,391.338 199.179,391.671 199.051 C 392.073 198.897,392.214 198.492,392.091 197.847 C 391.989 197.312,392.057 196.875,392.242 196.875 C 392.427 196.875,392.578 196.611,392.578 196.289 C 392.578 195.967,392.754 195.703,392.969 195.703 C 393.184 195.703,393.359 195.352,393.359 194.922 C 393.359 194.492,393.535 194.141,393.750 194.141 C 393.965 194.141,394.141 193.809,394.141 193.404 C 394.141 192.999,394.403 192.164,394.724 191.549 C 395.045 190.933,395.309 190.141,395.310 189.788 C 395.311 189.435,395.596 189.037,395.942 188.904 C 396.387 188.734,396.522 188.321,396.400 187.495 C 396.283 186.697,396.455 186.123,396.943 185.681 C 397.335 185.326,397.656 184.623,397.656 184.119 C 397.656 183.615,397.788 183.202,397.949 183.200 C 398.340 183.196,399.219 181.269,399.219 180.414 C 399.219 180.040,399.402 179.621,399.625 179.483 C 400.131 179.170,400.082 167.675,399.573 167.360 C 399.378 167.240,399.219 166.740,399.219 166.248 C 399.219 165.757,398.867 165.037,398.438 164.648 C 398.008 164.260,397.656 163.529,397.656 163.025 C 397.656 162.522,397.480 162.109,397.266 162.109 C 397.051 162.109,396.875 161.758,396.875 161.328 C 396.875 160.898,396.716 160.547,396.521 160.547 C 396.326 160.547,396.261 160.187,396.376 159.748 C 396.507 159.246,396.326 158.759,395.889 158.440 C 395.506 158.160,395.318 157.729,395.471 157.481 C 395.624 157.234,395.563 157.031,395.336 157.031 C 395.108 157.031,394.922 156.680,394.922 156.250 C 394.922 155.820,394.726 155.469,394.486 155.469 C 394.246 155.469,394.138 155.130,394.246 154.717 C 394.384 154.189,394.281 154.027,393.901 154.173 C 393.529 154.316,393.359 154.076,393.359 153.407 C 393.359 152.871,393.097 151.930,392.776 151.314 C 392.455 150.699,392.191 149.800,392.190 149.316 C 392.189 148.833,392.012 148.438,391.797 148.438 C 391.582 148.438,391.406 148.086,391.406 147.656 C 391.406 147.227,391.148 146.875,390.833 146.875 C 390.485 146.875,390.347 146.646,390.482 146.292 C 390.608 145.965,390.442 145.609,390.104 145.479 C 389.773 145.352,389.598 144.999,389.715 144.694 C 389.832 144.390,389.733 144.141,389.495 144.141 C 389.257 144.141,389.063 143.619,389.063 142.982 C 389.063 142.224,388.793 141.680,388.281 141.406 C 387.770 141.132,387.500 140.588,387.500 139.830 C 387.500 139.193,387.345 138.672,387.155 138.672 C 386.737 138.672,386.221 137.176,386.312 136.228 C 386.348 135.850,386.098 135.434,385.756 135.303 C 385.339 135.143,385.215 134.804,385.382 134.280 C 385.547 133.759,385.485 133.586,385.198 133.763 C 384.918 133.936,384.766 133.610,384.766 132.836 C 384.766 132.178,384.590 131.641,384.375 131.641 C 384.160 131.641,383.984 131.375,383.984 131.049 C 383.984 130.479,383.245 128.917,382.784 128.516 C 382.374 128.158,381.907 126.765,382.005 126.192 C 382.058 125.881,381.866 125.442,381.578 125.216 C 381.290 124.990,381.036 124.629,381.012 124.414 C 380.913 123.497,380.351 122.266,380.033 122.266 C 379.843 122.266,379.688 121.914,379.688 121.484 C 379.688 121.055,379.504 120.703,379.280 120.703 C 379.055 120.703,378.915 120.483,378.968 120.215 C 379.112 119.484,378.118 116.797,377.704 116.797 C 377.506 116.797,377.344 116.533,377.344 116.211 C 377.344 115.889,377.168 115.625,376.953 115.625 C 376.738 115.625,376.563 115.273,376.563 114.844 C 376.563 114.414,376.411 114.063,376.226 114.063 C 376.041 114.062,375.973 113.625,376.075 113.091 C 376.201 112.433,376.057 112.041,375.631 111.877 C 375.284 111.744,375.000 111.390,375.000 111.091 C 375.000 110.792,374.824 110.547,374.609 110.547 C 374.395 110.547,374.218 110.239,374.216 109.863 C 374.215 109.487,373.951 108.676,373.630 108.061 C 373.309 107.445,373.047 106.610,373.047 106.205 C 373.047 105.800,372.871 105.469,372.656 105.469 C 372.441 105.469,372.266 105.117,372.266 104.688 C 372.266 104.258,372.090 103.906,371.875 103.906 C 371.660 103.906,371.484 103.477,371.484 102.953 C 371.484 102.428,371.306 101.889,371.087 101.754 C 370.869 101.619,370.792 101.344,370.917 101.142 C 371.041 100.941,370.863 100.668,370.521 100.537 C 370.122 100.384,369.982 100.035,370.132 99.563 C 370.261 99.157,370.179 98.828,369.948 98.828 C 369.719 98.828,369.531 98.564,369.531 98.242 C 369.531 97.920,369.355 97.656,369.141 97.656 C 368.926 97.656,368.750 97.129,368.750 96.484 C 368.750 95.840,368.574 95.313,368.359 95.313 C 368.145 95.313,367.969 95.055,367.969 94.740 C 367.969 93.910,366.687 91.266,366.105 90.894 C 365.832 90.720,365.711 90.411,365.837 90.208 C 365.962 90.004,365.810 89.740,365.498 89.620 C 365.146 89.486,365.010 89.096,365.141 88.597 C 365.271 88.100,365.119 87.662,364.743 87.452 C 364.392 87.255,364.217 86.799,364.328 86.373 C 364.434 85.967,364.330 85.517,364.097 85.373 C 363.863 85.228,363.672 84.769,363.672 84.352 C 363.672 83.935,363.496 83.594,363.281 83.594 C 363.066 83.594,362.891 83.242,362.891 82.813 C 362.891 82.383,362.715 82.031,362.500 82.031 C 362.285 82.031,362.109 81.680,362.109 81.250 C 362.109 80.820,361.934 80.469,361.719 80.469 C 361.504 80.469,361.328 80.205,361.328 79.883 C 361.328 79.561,361.140 79.297,360.911 79.297 C 360.682 79.297,360.598 78.970,360.725 78.571 C 360.857 78.153,360.705 77.637,360.365 77.355 C 360.040 77.085,359.883 76.689,360.015 76.475 C 360.148 76.260,360.102 75.972,359.913 75.835 C 359.376 75.445,358.594 73.901,358.594 73.231 C 358.594 72.897,358.242 72.246,357.813 71.785 C 357.383 71.324,357.030 70.584,357.029 70.141 C 357.028 69.698,356.764 68.832,356.443 68.217 C 356.122 67.602,355.859 66.767,355.859 66.362 C 355.859 65.956,355.684 65.625,355.469 65.625 C 355.254 65.625,355.078 65.273,355.078 64.844 C 355.078 64.414,354.902 64.063,354.688 64.063 C 354.473 64.063,354.297 63.711,354.297 63.281 C 354.297 62.852,354.165 62.499,354.004 62.497 C 353.608 62.493,352.734 60.561,352.734 59.688 C 352.734 59.301,352.559 58.984,352.344 58.984 C 352.129 58.984,351.953 58.633,351.953 58.203 C 351.953 57.773,351.810 57.422,351.635 57.422 C 351.461 57.422,351.076 56.807,350.781 56.055 C 350.486 55.303,350.102 54.688,349.927 54.688 C 349.752 54.688,349.609 54.355,349.609 53.948 C 349.609 53.541,349.346 53.107,349.023 52.984 C 348.701 52.860,348.438 52.524,348.438 52.236 C 348.438 51.478,342.150 45.022,341.130 44.734 C 340.656 44.599,339.833 43.972,339.300 43.338 C 338.768 42.705,337.970 42.187,337.529 42.187 C 337.087 42.187,336.506 41.836,336.237 41.406 C 335.969 40.977,335.502 40.625,335.199 40.625 C 334.719 40.625,331.602 39.303,329.595 38.247 C 329.222 38.051,328.397 37.891,327.763 37.891 C 327.128 37.891,326.500 37.715,326.367 37.500 C 326.234 37.285,325.697 37.109,325.172 37.109 C 324.648 37.109,324.219 36.936,324.219 36.725 C 324.219 36.475,314.034 36.341,295.313 36.343 C 276.774 36.345,266.406 36.484,266.406 36.728 " stroke="none" fill="#fb0085" fill-rule="evenodd"></path></g></svg>